<svg width="780" height="452" viewBox="0 0 780 452" fill="none" xmlns="http://www.w3.org/2000/svg">
<rect width="780" height="452" fill="#013C54"/>
<g clip-path="url(#clip0_8_128)">
<path d="M593.167 70.8125L617.524 113L593.167 155.188M585.048 84.875H633.762L658.119 42.6875M585.048 141.125H633.762L658.119 183.312M641.881 183.312L666.238 141.125H714.952M706.833 155.188L682.476 113L706.833 70.8125M714.952 84.875H666.238L641.881 42.6875M617.524 56.75V94.25L585.048 113L617.524 131.75V169.25L650 150.5L682.476 169.25V131.75L714.952 113L682.476 94.25V56.75L650 75.5L617.524 56.75Z" stroke="#1D5267" stroke-width="4"/>
<path d="M528.215 183.313L552.572 225.5L528.215 267.688M520.096 197.375H568.81L593.167 155.188M520.096 253.625H568.81L593.167 295.813M576.929 295.813L601.286 253.625H650M641.881 267.688L617.524 225.5L641.881 183.313M650 197.375H601.286L576.929 155.188M552.572 169.25V206.75L520.096 225.5L552.572 244.25V281.75L585.048 263L617.524 281.75V244.25L650 225.5L617.524 206.75V169.25L585.048 188L552.572 169.25Z" stroke="#1D5267" stroke-width="4"/>
<path d="M528.215 -41.772L552.572 0.415527L528.215 42.603M520.096 -27.7095H568.81L593.167 -69.897M520.096 28.5405H568.81L593.167 70.728M576.929 70.728L601.286 28.5405H650M641.881 42.603L617.524 0.415527L641.881 -41.772M650 -27.7095H601.286L576.929 -69.897M552.572 -55.8345V-18.3345L520.096 0.415527L552.572 19.1655V56.6655L585.048 37.9155L617.524 56.6655V19.1655L650 0.415527L617.524 -18.3345V-55.8345L585.048 -37.0845L552.572 -55.8345Z" stroke="#1D5267" stroke-width="4"/>
<path d="M463.263 70.7305L487.62 112.918L463.263 155.105M455.144 84.793H503.858L528.215 42.6055M455.144 141.043H503.858L528.215 183.23M511.977 183.23L536.334 141.043H585.048M576.929 155.105L552.572 112.918L576.929 70.7305M585.048 84.793H536.334L511.977 42.6055M487.62 56.668V94.168L455.144 112.918L487.62 131.668V169.168L520.096 150.418L552.572 169.168V131.668L585.048 112.918L552.572 94.168V56.668L520.096 75.418L487.62 56.668Z" stroke="#1D5267" stroke-width="4"/>
</g>
<g clip-path="url(#clip1_8_128)">
<path d="M463.167 70.8125L487.524 113L463.167 155.188M455.048 84.875H503.762L528.119 42.6875M455.048 141.125H503.762L528.119 183.312M511.881 183.312L536.238 141.125H584.952M576.833 155.188L552.476 113L576.833 70.8125M584.952 84.875H536.238L511.881 42.6875M487.524 56.75V94.25L455.048 113L487.524 131.75V169.25L520 150.5L552.476 169.25V131.75L584.952 113L552.476 94.25V56.75L520 75.5L487.524 56.75Z" stroke="#1D5267" stroke-width="4"/>
<path d="M398.215 183.313L422.572 225.5L398.215 267.688M390.096 197.375H438.81L463.167 155.188M390.096 253.625H438.81L463.167 295.813M446.929 295.813L471.286 253.625H520M511.881 267.688L487.524 225.5L511.881 183.313M520 197.375H471.286L446.929 155.188M422.572 169.25V206.75L390.096 225.5L422.572 244.25V281.75L455.048 263L487.524 281.75V244.25L520 225.5L487.524 206.75V169.25L455.048 188L422.572 169.25Z" stroke="#1D5267" stroke-width="4"/>
<path d="M398.215 -41.772L422.572 0.415527L398.215 42.603M390.096 -27.7095H438.81L463.167 -69.897M390.096 28.5405H438.81L463.167 70.728M446.929 70.728L471.286 28.5405H520M511.881 42.603L487.524 0.415527L511.881 -41.772M520 -27.7095H471.286L446.929 -69.897M422.572 -55.8345V-18.3345L390.096 0.415527L422.572 19.1655V56.6655L455.048 37.9155L487.524 56.6655V19.1655L520 0.415527L487.524 -18.3345V-55.8345L455.048 -37.0845L422.572 -55.8345Z" stroke="#1D5267" stroke-width="4"/>
<path d="M333.263 70.7305L357.62 112.918L333.263 155.105M325.144 84.793H373.858L398.215 42.6055M325.144 141.043H373.858L398.215 183.23M381.977 183.23L406.334 141.043H455.048M446.929 155.105L422.572 112.918L446.929 70.7305M455.048 84.793H406.334L381.977 42.6055M357.62 56.668V94.168L325.144 112.918L357.62 131.668V169.168L390.096 150.418L422.572 169.168V131.668L455.048 112.918L422.572 94.168V56.668L390.096 75.418L357.62 56.668Z" stroke="#1D5267" stroke-width="4"/>
</g>
<g clip-path="url(#clip2_8_128)">
<path d="M333.167 70.8125L357.524 113L333.167 155.188M325.048 84.875H373.762L398.119 42.6875M325.048 141.125H373.762L398.119 183.312M381.881 183.312L406.238 141.125H454.952M446.833 155.188L422.476 113L446.833 70.8125M454.952 84.875H406.238L381.881 42.6875M357.524 56.75V94.25L325.048 113L357.524 131.75V169.25L390 150.5L422.476 169.25V131.75L454.952 113L422.476 94.25V56.75L390 75.5L357.524 56.75Z" stroke="#1D5267" stroke-width="4"/>
<path d="M268.215 183.313L292.572 225.5L268.215 267.688M260.096 197.375H308.81L333.167 155.188M260.096 253.625H308.81L333.167 295.813M316.929 295.813L341.286 253.625H390M381.881 267.688L357.524 225.5L381.881 183.313M390 197.375H341.286L316.929 155.188M292.572 169.25V206.75L260.096 225.5L292.572 244.25V281.75L325.048 263L357.524 281.75V244.25L390 225.5L357.524 206.75V169.25L325.048 188L292.572 169.25Z" stroke="#1D5267" stroke-width="4"/>
<path d="M268.215 -41.772L292.572 0.415527L268.215 42.603M260.096 -27.7095H308.81L333.167 -69.897M260.096 28.5405H308.81L333.167 70.728M316.929 70.728L341.286 28.5405H390M381.881 42.603L357.524 0.415527L381.881 -41.772M390 -27.7095H341.286L316.929 -69.897M292.572 -55.8345V-18.3345L260.096 0.415527L292.572 19.1655V56.6655L325.048 37.9155L357.524 56.6655V19.1655L390 0.415527L357.524 -18.3345V-55.8345L325.048 -37.0845L292.572 -55.8345Z" stroke="#1D5267" stroke-width="4"/>
<path d="M203.263 70.7305L227.62 112.918L203.263 155.105M195.144 84.793H243.858L268.215 42.6055M195.144 141.043H243.858L268.215 183.23M251.977 183.23L276.334 141.043H325.048M316.929 155.105L292.572 112.918L316.929 70.7305M325.048 84.793H276.334L251.977 42.6055M227.62 56.668V94.168L195.144 112.918L227.62 131.668V169.168L260.096 150.418L292.572 169.168V131.668L325.048 112.918L292.572 94.168V56.668L260.096 75.418L227.62 56.668Z" stroke="#1D5267" stroke-width="4"/>
</g>
<g clip-path="url(#clip3_8_128)">
<path d="M203.167 70.8125L227.524 113L203.167 155.188M195.048 84.875H243.762L268.119 42.6875M195.048 141.125H243.762L268.119 183.312M251.881 183.312L276.238 141.125H324.952M316.833 155.188L292.476 113L316.833 70.8125M324.952 84.875H276.238L251.881 42.6875M227.524 56.75V94.25L195.048 113L227.524 131.75V169.25L260 150.5L292.476 169.25V131.75L324.952 113L292.476 94.25V56.75L260 75.5L227.524 56.75Z" stroke="#1D5267" stroke-width="4"/>
<path d="M138.215 183.313L162.572 225.5L138.215 267.688M130.096 197.375H178.81L203.167 155.188M130.096 253.625H178.81L203.167 295.813M186.929 295.813L211.286 253.625H260M251.881 267.688L227.524 225.5L251.881 183.313M260 197.375H211.286L186.929 155.188M162.572 169.25V206.75L130.096 225.5L162.572 244.25V281.75L195.048 263L227.524 281.75V244.25L260 225.5L227.524 206.75V169.25L195.048 188L162.572 169.25Z" stroke="#1D5267" stroke-width="4"/>
<path d="M138.215 -41.772L162.572 0.415527L138.215 42.603M130.096 -27.7095H178.81L203.167 -69.897M130.096 28.5405H178.81L203.167 70.728M186.929 70.728L211.286 28.5405H260M251.881 42.603L227.524 0.415527L251.881 -41.772M260 -27.7095H211.286L186.929 -69.897M162.572 -55.8345V-18.3345L130.096 0.415527L162.572 19.1655V56.6655L195.048 37.9155L227.524 56.6655V19.1655L260 0.415527L227.524 -18.3345V-55.8345L195.048 -37.0845L162.572 -55.8345Z" stroke="#1D5267" stroke-width="4"/>
<path d="M73.2633 70.7305L97.6202 112.918L73.2633 155.105M65.1443 84.793H113.858L138.215 42.6055M65.1443 141.043H113.858L138.215 183.23M121.977 183.23L146.334 141.043H195.048M186.929 155.105L162.572 112.918L186.929 70.7305M195.048 84.793H146.334L121.977 42.6055M97.6202 56.668V94.168L65.1443 112.918L97.6202 131.668V169.168L130.096 150.418L162.572 169.168V131.668L195.048 112.918L162.572 94.168V56.668L130.096 75.418L97.6202 56.668Z" stroke="#1D5267" stroke-width="4"/>
</g>
<g clip-path="url(#clip4_8_128)">
<path d="M73.1671 70.8125L97.524 113L73.1671 155.188M65.0481 84.875H113.762L138.119 42.6875M65.0481 141.125H113.762L138.119 183.312M121.881 183.312L146.238 141.125H194.952M186.833 155.188L162.476 113L186.833 70.8125M194.952 84.875H146.238L121.881 42.6875M97.524 56.75V94.25L65.0481 113L97.524 131.75V169.25L130 150.5L162.476 169.25V131.75L194.952 113L162.476 94.25V56.75L130 75.5L97.524 56.75Z" stroke="#1D5267" stroke-width="4"/>
<path d="M8.21518 183.313L32.5721 225.5L8.21518 267.688M0.0961914 197.375H48.8101L73.1671 155.188M0.0961914 253.625H48.8101L73.1671 295.813M56.9291 295.813L81.2861 253.625H130M121.881 267.688L97.524 225.5L121.881 183.313M130 197.375H81.2861L56.9291 155.188M32.5721 169.25V206.75L0.0961914 225.5L32.5721 244.25V281.75L65.0481 263L97.524 281.75V244.25L130 225.5L97.524 206.75V169.25L65.0481 188L32.5721 169.25Z" stroke="#1D5267" stroke-width="4"/>
<path d="M8.21518 -41.772L32.5721 0.415527L8.21518 42.603M0.0961914 -27.7095H48.8101L73.1671 -69.897M0.0961914 28.5405H48.8101L73.1671 70.728M56.9291 70.728L81.2861 28.5405H130M121.881 42.603L97.524 0.415527L121.881 -41.772M130 -27.7095H81.2861L56.9291 -69.897M32.5721 -55.8345V-18.3345L0.0961914 0.415527L32.5721 19.1655V56.6655L65.0481 37.9155L97.524 56.6655V19.1655L130 0.415527L97.524 -18.3345V-55.8345L65.0481 -37.0845L32.5721 -55.8345Z" stroke="#1D5267" stroke-width="4"/>
<path d="M-56.7367 70.7305L-32.3798 112.918L-56.7367 155.105M-64.8557 84.793H-16.1418L8.21516 42.6055M-64.8557 141.043H-16.1418L8.21516 183.23M-8.02282 183.23L16.3342 141.043H65.0481M56.9291 155.105L32.5721 112.918L56.9291 70.7305M65.0481 84.793H16.3342L-8.02282 42.6055M-32.3798 56.668V94.168L-64.8557 112.918L-32.3798 131.668V169.168L0.0961761 150.418L32.5721 169.168V131.668L65.0481 112.918L32.5721 94.168V56.668L0.0961761 75.418L-32.3798 56.668Z" stroke="#1D5267" stroke-width="4"/>
</g>
<g clip-path="url(#clip5_8_128)">
<path d="M73.1671 296.812L97.524 339L73.1671 381.188M65.0481 310.875H113.762L138.119 268.688M65.0481 367.125H113.762L138.119 409.312M121.881 409.312L146.238 367.125H194.952M186.833 381.188L162.476 339L186.833 296.812M194.952 310.875H146.238L121.881 268.688M97.524 282.75V320.25L65.0481 339L97.524 357.75V395.25L130 376.5L162.476 395.25V357.75L194.952 339L162.476 320.25V282.75L130 301.5L97.524 282.75Z" stroke="#1D5267" stroke-width="4"/>
<path d="M8.21518 409.313L32.5721 451.5L8.21518 493.688M0.0961914 423.375H48.8101L73.1671 381.188M0.0961914 479.625H48.8101L73.1671 521.813M56.9291 521.813L81.2861 479.625H130M121.881 493.688L97.524 451.5L121.881 409.313M130 423.375H81.2861L56.9291 381.188M32.5721 395.25V432.75L0.0961914 451.5L32.5721 470.25V507.75L65.0481 489L97.524 507.75V470.25L130 451.5L97.524 432.75V395.25L65.0481 414L32.5721 395.25Z" stroke="#1D5267" stroke-width="4"/>
<path d="M8.21518 184.228L32.5721 226.416L8.21518 268.603M0.0961914 198.291H48.8101L73.1671 156.103M0.0961914 254.54H48.8101L73.1671 296.728M56.9291 296.728L81.2861 254.54H130M121.881 268.603L97.524 226.416L121.881 184.228M130 198.291H81.2861L56.9291 156.103M32.5721 170.166V207.666L0.0961914 226.416L32.5721 245.165V282.665L65.0481 263.915L97.524 282.665V245.165L130 226.416L97.524 207.666V170.166L65.0481 188.916L32.5721 170.166Z" stroke="#1D5267" stroke-width="4"/>
<path d="M-56.7367 296.73L-32.3798 338.918L-56.7367 381.105M-64.8557 310.793H-16.1418L8.21516 268.605M-64.8557 367.043H-16.1418L8.21516 409.23M-8.02282 409.23L16.3342 367.043H65.0481M56.9291 381.105L32.5721 338.918L56.9291 296.73M65.0481 310.793H16.3342L-8.02282 268.605M-32.3798 282.668V320.168L-64.8557 338.918L-32.3798 357.668V395.168L0.0961761 376.418L32.5721 395.168V357.668L65.0481 338.918L32.5721 320.168V282.668L0.0961761 301.418L-32.3798 282.668Z" stroke="#1D5267" stroke-width="4"/>
</g>
<g clip-path="url(#clip6_8_128)">
<path d="M203.167 296.812L227.524 339L203.167 381.188M195.048 310.875H243.762L268.119 268.688M195.048 367.125H243.762L268.119 409.312M251.881 409.312L276.238 367.125H324.952M316.833 381.188L292.476 339L316.833 296.812M324.952 310.875H276.238L251.881 268.688M227.524 282.75V320.25L195.048 339L227.524 357.75V395.25L260 376.5L292.476 395.25V357.75L324.952 339L292.476 320.25V282.75L260 301.5L227.524 282.75Z" stroke="#1D5267" stroke-width="4"/>
<path d="M138.215 409.313L162.572 451.5L138.215 493.688M130.096 423.375H178.81L203.167 381.188M130.096 479.625H178.81L203.167 521.813M186.929 521.813L211.286 479.625H260M251.881 493.688L227.524 451.5L251.881 409.313M260 423.375H211.286L186.929 381.188M162.572 395.25V432.75L130.096 451.5L162.572 470.25V507.75L195.048 489L227.524 507.75V470.25L260 451.5L227.524 432.75V395.25L195.048 414L162.572 395.25Z" stroke="#1D5267" stroke-width="4"/>
<path d="M138.215 184.228L162.572 226.416L138.215 268.603M130.096 198.291H178.81L203.167 156.103M130.096 254.54H178.81L203.167 296.728M186.929 296.728L211.286 254.54H260M251.881 268.603L227.524 226.416L251.881 184.228M260 198.291H211.286L186.929 156.103M162.572 170.166V207.666L130.096 226.416L162.572 245.165V282.665L195.048 263.915L227.524 282.665V245.165L260 226.416L227.524 207.666V170.166L195.048 188.916L162.572 170.166Z" stroke="#1D5267" stroke-width="4"/>
<path d="M73.2633 296.73L97.6202 338.918L73.2633 381.105M65.1443 310.793H113.858L138.215 268.605M65.1443 367.043H113.858L138.215 409.23M121.977 409.23L146.334 367.043H195.048M186.929 381.105L162.572 338.918L186.929 296.73M195.048 310.793H146.334L121.977 268.605M97.6202 282.668V320.168L65.1443 338.918L97.6202 357.668V395.168L130.096 376.418L162.572 395.168V357.668L195.048 338.918L162.572 320.168V282.668L130.096 301.418L97.6202 282.668Z" stroke="#1D5267" stroke-width="4"/>
</g>
<g clip-path="url(#clip7_8_128)">
<path d="M333.167 296.812L357.524 339L333.167 381.188M325.048 310.875H373.762L398.119 268.688M325.048 367.125H373.762L398.119 409.312M381.881 409.312L406.238 367.125H454.952M446.833 381.188L422.476 339L446.833 296.812M454.952 310.875H406.238L381.881 268.688M357.524 282.75V320.25L325.048 339L357.524 357.75V395.25L390 376.5L422.476 395.25V357.75L454.952 339L422.476 320.25V282.75L390 301.5L357.524 282.75Z" stroke="#1D5267" stroke-width="4"/>
<path d="M268.215 409.313L292.572 451.5L268.215 493.688M260.096 423.375H308.81L333.167 381.188M260.096 479.625H308.81L333.167 521.813M316.929 521.813L341.286 479.625H390M381.881 493.688L357.524 451.5L381.881 409.313M390 423.375H341.286L316.929 381.188M292.572 395.25V432.75L260.096 451.5L292.572 470.25V507.75L325.048 489L357.524 507.75V470.25L390 451.5L357.524 432.75V395.25L325.048 414L292.572 395.25Z" stroke="#1D5267" stroke-width="4"/>
<path d="M268.215 184.228L292.572 226.416L268.215 268.603M260.096 198.291H308.81L333.167 156.103M260.096 254.54H308.81L333.167 296.728M316.929 296.728L341.286 254.54H390M381.881 268.603L357.524 226.416L381.881 184.228M390 198.291H341.286L316.929 156.103M292.572 170.166V207.666L260.096 226.416L292.572 245.165V282.665L325.048 263.915L357.524 282.665V245.165L390 226.416L357.524 207.666V170.166L325.048 188.916L292.572 170.166Z" stroke="#1D5267" stroke-width="4"/>
<path d="M203.263 296.73L227.62 338.918L203.263 381.105M195.144 310.793H243.858L268.215 268.605M195.144 367.043H243.858L268.215 409.23M251.977 409.23L276.334 367.043H325.048M316.929 381.105L292.572 338.918L316.929 296.73M325.048 310.793H276.334L251.977 268.605M227.62 282.668V320.168L195.144 338.918L227.62 357.668V395.168L260.096 376.418L292.572 395.168V357.668L325.048 338.918L292.572 320.168V282.668L260.096 301.418L227.62 282.668Z" stroke="#1D5267" stroke-width="4"/>
</g>
<g clip-path="url(#clip8_8_128)">
<path d="M463.167 296.812L487.524 339L463.167 381.188M455.048 310.875H503.762L528.119 268.688M455.048 367.125H503.762L528.119 409.312M511.881 409.312L536.238 367.125H584.952M576.833 381.188L552.476 339L576.833 296.812M584.952 310.875H536.238L511.881 268.688M487.524 282.75V320.25L455.048 339L487.524 357.75V395.25L520 376.5L552.476 395.25V357.75L584.952 339L552.476 320.25V282.75L520 301.5L487.524 282.75Z" stroke="#1D5267" stroke-width="4"/>
<path d="M398.215 409.313L422.572 451.5L398.215 493.688M390.096 423.375H438.81L463.167 381.188M390.096 479.625H438.81L463.167 521.813M446.929 521.813L471.286 479.625H520M511.881 493.688L487.524 451.5L511.881 409.313M520 423.375H471.286L446.929 381.188M422.572 395.25V432.75L390.096 451.5L422.572 470.25V507.75L455.048 489L487.524 507.75V470.25L520 451.5L487.524 432.75V395.25L455.048 414L422.572 395.25Z" stroke="#1D5267" stroke-width="4"/>
<path d="M398.215 184.228L422.572 226.416L398.215 268.603M390.096 198.291H438.81L463.167 156.103M390.096 254.54H438.81L463.167 296.728M446.929 296.728L471.286 254.54H520M511.881 268.603L487.524 226.416L511.881 184.228M520 198.291H471.286L446.929 156.103M422.572 170.166V207.666L390.096 226.416L422.572 245.165V282.665L455.048 263.915L487.524 282.665V245.165L520 226.416L487.524 207.666V170.166L455.048 188.916L422.572 170.166Z" stroke="#1D5267" stroke-width="4"/>
<path d="M333.263 296.73L357.62 338.918L333.263 381.105M325.144 310.793H373.858L398.215 268.605M325.144 367.043H373.858L398.215 409.23M381.977 409.23L406.334 367.043H455.048M446.929 381.105L422.572 338.918L446.929 296.73M455.048 310.793H406.334L381.977 268.605M357.62 282.668V320.168L325.144 338.918L357.62 357.668V395.168L390.096 376.418L422.572 395.168V357.668L455.048 338.918L422.572 320.168V282.668L390.096 301.418L357.62 282.668Z" stroke="#1D5267" stroke-width="4"/>
</g>
<g clip-path="url(#clip9_8_128)">
<path d="M593.167 296.812L617.524 339L593.167 381.188M585.048 310.875H633.762L658.119 268.688M585.048 367.125H633.762L658.119 409.312M641.881 409.312L666.238 367.125H714.952M706.833 381.188L682.476 339L706.833 296.812M714.952 310.875H666.238L641.881 268.688M617.524 282.75V320.25L585.048 339L617.524 357.75V395.25L650 376.5L682.476 395.25V357.75L714.952 339L682.476 320.25V282.75L650 301.5L617.524 282.75Z" stroke="#1D5267" stroke-width="4"/>
<path d="M528.215 409.313L552.572 451.5L528.215 493.688M520.096 423.375H568.81L593.167 381.188M520.096 479.625H568.81L593.167 521.813M576.929 521.813L601.286 479.625H650M641.881 493.688L617.524 451.5L641.881 409.313M650 423.375H601.286L576.929 381.188M552.572 395.25V432.75L520.096 451.5L552.572 470.25V507.75L585.048 489L617.524 507.75V470.25L650 451.5L617.524 432.75V395.25L585.048 414L552.572 395.25Z" stroke="#1D5267" stroke-width="4"/>
<path d="M528.215 184.228L552.572 226.416L528.215 268.603M520.096 198.291H568.81L593.167 156.103M520.096 254.54H568.81L593.167 296.728M576.929 296.728L601.286 254.54H650M641.881 268.603L617.524 226.416L641.881 184.228M650 198.291H601.286L576.929 156.103M552.572 170.166V207.666L520.096 226.416L552.572 245.165V282.665L585.048 263.915L617.524 282.665V245.165L650 226.416L617.524 207.666V170.166L585.048 188.916L552.572 170.166Z" stroke="#1D5267" stroke-width="4"/>
<path d="M463.263 296.73L487.62 338.918L463.263 381.105M455.144 310.793H503.858L528.215 268.605M455.144 367.043H503.858L528.215 409.23M511.977 409.23L536.334 367.043H585.048M576.929 381.105L552.572 338.918L576.929 296.73M585.048 310.793H536.334L511.977 268.605M487.62 282.668V320.168L455.144 338.918L487.62 357.668V395.168L520.096 376.418L552.572 395.168V357.668L585.048 338.918L552.572 320.168V282.668L520.096 301.418L487.62 282.668Z" stroke="#1D5267" stroke-width="4"/>
</g>
<g clip-path="url(#clip10_8_128)">
<path d="M723.167 296.812L747.524 339L723.167 381.188M715.048 310.875H763.762L788.119 268.688M715.048 367.125H763.762L788.119 409.312M771.881 409.312L796.238 367.125H844.952M836.833 381.188L812.476 339L836.833 296.812M844.952 310.875H796.238L771.881 268.688M747.524 282.75V320.25L715.048 339L747.524 357.75V395.25L780 376.5L812.476 395.25V357.75L844.952 339L812.476 320.25V282.75L780 301.5L747.524 282.75Z" stroke="#1D5267" stroke-width="4"/>
<path d="M658.215 409.313L682.572 451.5L658.215 493.688M650.096 423.375H698.81L723.167 381.188M650.096 479.625H698.81L723.167 521.813M706.929 521.813L731.286 479.625H780M771.881 493.688L747.524 451.5L771.881 409.313M780 423.375H731.286L706.929 381.188M682.572 395.25V432.75L650.096 451.5L682.572 470.25V507.75L715.048 489L747.524 507.75V470.25L780 451.5L747.524 432.75V395.25L715.048 414L682.572 395.25Z" stroke="#1D5267" stroke-width="4"/>
<path d="M658.215 184.228L682.572 226.416L658.215 268.603M650.096 198.291H698.81L723.167 156.103M650.096 254.54H698.81L723.167 296.728M706.929 296.728L731.286 254.54H780M771.881 268.603L747.524 226.416L771.881 184.228M780 198.291H731.286L706.929 156.103M682.572 170.166V207.666L650.096 226.416L682.572 245.165V282.665L715.048 263.915L747.524 282.665V245.165L780 226.416L747.524 207.666V170.166L715.048 188.916L682.572 170.166Z" stroke="#1D5267" stroke-width="4"/>
<path d="M593.263 296.73L617.62 338.918L593.263 381.105M585.144 310.793H633.858L658.215 268.605M585.144 367.043H633.858L658.215 409.23M641.977 409.23L666.334 367.043H715.048M706.929 381.105L682.572 338.918L706.929 296.73M715.048 310.793H666.334L641.977 268.605M617.62 282.668V320.168L585.144 338.918L617.62 357.668V395.168L650.096 376.418L682.572 395.168V357.668L715.048 338.918L682.572 320.168V282.668L650.096 301.418L617.62 282.668Z" stroke="#1D5267" stroke-width="4"/>
</g>
<g clip-path="url(#clip11_8_128)">
<path d="M723.167 70.8125L747.524 113L723.167 155.188M715.048 84.875H763.762L788.119 42.6875M715.048 141.125H763.762L788.119 183.312M771.881 183.312L796.238 141.125H844.952M836.833 155.188L812.476 113L836.833 70.8125M844.952 84.875H796.238L771.881 42.6875M747.524 56.75V94.25L715.048 113L747.524 131.75V169.25L780 150.5L812.476 169.25V131.75L844.952 113L812.476 94.25V56.75L780 75.5L747.524 56.75Z" stroke="#1D5267" stroke-width="4"/>
<path d="M658.215 183.313L682.572 225.5L658.215 267.688M650.096 197.375H698.81L723.167 155.188M650.096 253.625H698.81L723.167 295.813M706.929 295.813L731.286 253.625H780M771.881 267.688L747.524 225.5L771.881 183.313M780 197.375H731.286L706.929 155.188M682.572 169.25V206.75L650.096 225.5L682.572 244.25V281.75L715.048 263L747.524 281.75V244.25L780 225.5L747.524 206.75V169.25L715.048 188L682.572 169.25Z" stroke="#1D5267" stroke-width="4"/>
<path d="M658.215 -41.772L682.572 0.415527L658.215 42.603M650.096 -27.7095H698.81L723.167 -69.897M650.096 28.5405H698.81L723.167 70.728M706.929 70.728L731.286 28.5405H780M771.881 42.603L747.524 0.415527L771.881 -41.772M780 -27.7095H731.286L706.929 -69.897M682.572 -55.8345V-18.3345L650.096 0.415527L682.572 19.1655V56.6655L715.048 37.9155L747.524 56.6655V19.1655L780 0.415527L747.524 -18.3345V-55.8345L715.048 -37.0845L682.572 -55.8345Z" stroke="#1D5267" stroke-width="4"/>
<path d="M593.263 70.7305L617.62 112.918L593.263 155.105M585.144 84.793H633.858L658.215 42.6055M585.144 141.043H633.858L658.215 183.23M641.977 183.23L666.334 141.043H715.048M706.929 155.105L682.572 112.918L706.929 70.7305M715.048 84.793H666.334L641.977 42.6055M617.62 56.668V94.168L585.144 112.918L617.62 131.668V169.168L650.096 150.418L682.572 169.168V131.668L715.048 112.918L682.572 94.168V56.668L650.096 75.418L617.62 56.668Z" stroke="#1D5267" stroke-width="4"/>
</g>
<defs>
<clipPath id="clip0_8_128">
<rect width="130" height="226" fill="white" transform="translate(520)"/>
</clipPath>
<clipPath id="clip1_8_128">
<rect width="130" height="226" fill="white" transform="translate(390)"/>
</clipPath>
<clipPath id="clip2_8_128">
<rect width="130" height="226" fill="white" transform="translate(260)"/>
</clipPath>
<clipPath id="clip3_8_128">
<rect width="130" height="226" fill="white" transform="translate(130)"/>
</clipPath>
<clipPath id="clip4_8_128">
<rect width="130" height="226" fill="white"/>
</clipPath>
<clipPath id="clip5_8_128">
<rect width="130" height="226" fill="white" transform="translate(0 226)"/>
</clipPath>
<clipPath id="clip6_8_128">
<rect width="130" height="226" fill="white" transform="translate(130 226)"/>
</clipPath>
<clipPath id="clip7_8_128">
<rect width="130" height="226" fill="white" transform="translate(260 226)"/>
</clipPath>
<clipPath id="clip8_8_128">
<rect width="130" height="226" fill="white" transform="translate(390 226)"/>
</clipPath>
<clipPath id="clip9_8_128">
<rect width="130" height="226" fill="white" transform="translate(520 226)"/>
</clipPath>
<clipPath id="clip10_8_128">
<rect width="130" height="226" fill="white" transform="translate(650 226)"/>
</clipPath>
<clipPath id="clip11_8_128">
<rect width="130" height="226" fill="white" transform="translate(650)"/>
</clipPath>
</defs>
</svg>
