<svg width="780" height="452" viewBox="0 0 780 452" fill="none" xmlns="http://www.w3.org/2000/svg">
<g clip-path="url(#clip0_8_123)">
<path d="M592.167 70.8125L616.524 113L592.167 155.188M584.048 84.875H632.762L657.119 42.6875M584.048 141.125H632.762L657.119 183.312M640.881 183.312L665.238 141.125H713.952M705.833 155.188L681.476 113L705.833 70.8125M713.952 84.875H665.238L640.881 42.6875M616.524 56.75V94.25L584.048 113L616.524 131.75V169.25L649 150.5L681.476 169.25V131.75L713.952 113L681.476 94.25V56.75L649 75.5L616.524 56.75Z" stroke="#1D5267" stroke-width="4"/>
<path d="M527.215 183.313L551.572 225.5L527.215 267.688M519.096 197.375H567.81L592.167 155.188M519.096 253.625H567.81L592.167 295.813M575.929 295.813L600.286 253.625H649M640.881 267.688L616.524 225.5L640.881 183.313M649 197.375H600.286L575.929 155.188M551.572 169.25V206.75L519.096 225.5L551.572 244.25V281.75L584.048 263L616.524 281.75V244.25L649 225.5L616.524 206.75V169.25L584.048 188L551.572 169.25Z" stroke="#1D5267" stroke-width="4"/>
<path d="M527.215 -41.772L551.572 0.415527L527.215 42.603M519.096 -27.7095H567.81L592.167 -69.897M519.096 28.5405H567.81L592.167 70.728M575.929 70.728L600.286 28.5405H649M640.881 42.603L616.524 0.415527L640.881 -41.772M649 -27.7095H600.286L575.929 -69.897M551.572 -55.8345V-18.3345L519.096 0.415527L551.572 19.1655V56.6655L584.048 37.9155L616.524 56.6655V19.1655L649 0.415527L616.524 -18.3345V-55.8345L584.048 -37.0845L551.572 -55.8345Z" stroke="#1D5267" stroke-width="4"/>
<path d="M462.263 70.7305L486.62 112.918L462.263 155.105M454.144 84.793H502.858L527.215 42.6055M454.144 141.043H502.858L527.215 183.23M510.977 183.23L535.334 141.043H584.048M575.929 155.105L551.572 112.918L575.929 70.7305M584.048 84.793H535.334L510.977 42.6055M486.62 56.668V94.168L454.144 112.918L486.62 131.668V169.168L519.096 150.418L551.572 169.168V131.668L584.048 112.918L551.572 94.168V56.668L519.096 75.418L486.62 56.668Z" stroke="#1D5267" stroke-width="4"/>
</g>
<g clip-path="url(#clip1_8_123)">
<path d="M462.167 70.8125L486.524 113L462.167 155.188M454.048 84.875H502.762L527.119 42.6875M454.048 141.125H502.762L527.119 183.312M510.881 183.312L535.238 141.125H583.952M575.833 155.188L551.476 113L575.833 70.8125M583.952 84.875H535.238L510.881 42.6875M486.524 56.75V94.25L454.048 113L486.524 131.75V169.25L519 150.5L551.476 169.25V131.75L583.952 113L551.476 94.25V56.75L519 75.5L486.524 56.75Z" stroke="#1D5267" stroke-width="4"/>
<path d="M397.215 183.313L421.572 225.5L397.215 267.688M389.096 197.375H437.81L462.167 155.188M389.096 253.625H437.81L462.167 295.813M445.929 295.813L470.286 253.625H519M510.881 267.688L486.524 225.5L510.881 183.313M519 197.375H470.286L445.929 155.188M421.572 169.25V206.75L389.096 225.5L421.572 244.25V281.75L454.048 263L486.524 281.75V244.25L519 225.5L486.524 206.75V169.25L454.048 188L421.572 169.25Z" stroke="#1D5267" stroke-width="4"/>
<path d="M397.215 -41.772L421.572 0.415527L397.215 42.603M389.096 -27.7095H437.81L462.167 -69.897M389.096 28.5405H437.81L462.167 70.728M445.929 70.728L470.286 28.5405H519M510.881 42.603L486.524 0.415527L510.881 -41.772M519 -27.7095H470.286L445.929 -69.897M421.572 -55.8345V-18.3345L389.096 0.415527L421.572 19.1655V56.6655L454.048 37.9155L486.524 56.6655V19.1655L519 0.415527L486.524 -18.3345V-55.8345L454.048 -37.0845L421.572 -55.8345Z" stroke="#1D5267" stroke-width="4"/>
<path d="M332.263 70.7305L356.62 112.918L332.263 155.105M324.144 84.793H372.858L397.215 42.6055M324.144 141.043H372.858L397.215 183.23M380.977 183.23L405.334 141.043H454.048M445.929 155.105L421.572 112.918L445.929 70.7305M454.048 84.793H405.334L380.977 42.6055M356.62 56.668V94.168L324.144 112.918L356.62 131.668V169.168L389.096 150.418L421.572 169.168V131.668L454.048 112.918L421.572 94.168V56.668L389.096 75.418L356.62 56.668Z" stroke="#1D5267" stroke-width="4"/>
</g>
<g clip-path="url(#clip2_8_123)">
<path d="M332.167 70.8125L356.524 113L332.167 155.188M324.048 84.875H372.762L397.119 42.6875M324.048 141.125H372.762L397.119 183.312M380.881 183.312L405.238 141.125H453.952M445.833 155.188L421.476 113L445.833 70.8125M453.952 84.875H405.238L380.881 42.6875M356.524 56.75V94.25L324.048 113L356.524 131.75V169.25L389 150.5L421.476 169.25V131.75L453.952 113L421.476 94.25V56.75L389 75.5L356.524 56.75Z" stroke="#1D5267" stroke-width="4"/>
<path d="M267.215 183.313L291.572 225.5L267.215 267.688M259.096 197.375H307.81L332.167 155.188M259.096 253.625H307.81L332.167 295.813M315.929 295.813L340.286 253.625H389M380.881 267.688L356.524 225.5L380.881 183.313M389 197.375H340.286L315.929 155.188M291.572 169.25V206.75L259.096 225.5L291.572 244.25V281.75L324.048 263L356.524 281.75V244.25L389 225.5L356.524 206.75V169.25L324.048 188L291.572 169.25Z" stroke="#1D5267" stroke-width="4"/>
<path d="M267.215 -41.772L291.572 0.415527L267.215 42.603M259.096 -27.7095H307.81L332.167 -69.897M259.096 28.5405H307.81L332.167 70.728M315.929 70.728L340.286 28.5405H389M380.881 42.603L356.524 0.415527L380.881 -41.772M389 -27.7095H340.286L315.929 -69.897M291.572 -55.8345V-18.3345L259.096 0.415527L291.572 19.1655V56.6655L324.048 37.9155L356.524 56.6655V19.1655L389 0.415527L356.524 -18.3345V-55.8345L324.048 -37.0845L291.572 -55.8345Z" stroke="#1D5267" stroke-width="4"/>
<path d="M202.263 70.7305L226.62 112.918L202.263 155.105M194.144 84.793H242.858L267.215 42.6055M194.144 141.043H242.858L267.215 183.23M250.977 183.23L275.334 141.043H324.048M315.929 155.105L291.572 112.918L315.929 70.7305M324.048 84.793H275.334L250.977 42.6055M226.62 56.668V94.168L194.144 112.918L226.62 131.668V169.168L259.096 150.418L291.572 169.168V131.668L324.048 112.918L291.572 94.168V56.668L259.096 75.418L226.62 56.668Z" stroke="#1D5267" stroke-width="4"/>
</g>
<g clip-path="url(#clip3_8_123)">
<path d="M203.167 70.8125L227.524 113L203.167 155.188M195.048 84.875H243.762L268.119 42.6875M195.048 141.125H243.762L268.119 183.312M251.881 183.312L276.238 141.125H324.952M316.833 155.188L292.476 113L316.833 70.8125M324.952 84.875H276.238L251.881 42.6875M227.524 56.75V94.25L195.048 113L227.524 131.75V169.25L260 150.5L292.476 169.25V131.75L324.952 113L292.476 94.25V56.75L260 75.5L227.524 56.75Z" stroke="#1D5267" stroke-width="4"/>
<path d="M138.215 183.313L162.572 225.5L138.215 267.688M130.096 197.375H178.81L203.167 155.188M130.096 253.625H178.81L203.167 295.813M186.929 295.813L211.286 253.625H260M251.881 267.688L227.524 225.5L251.881 183.313M260 197.375H211.286L186.929 155.188M162.572 169.25V206.75L130.096 225.5L162.572 244.25V281.75L195.048 263L227.524 281.75V244.25L260 225.5L227.524 206.75V169.25L195.048 188L162.572 169.25Z" stroke="#1D5267" stroke-width="4"/>
<path d="M138.215 -41.772L162.572 0.415527L138.215 42.603M130.096 -27.7095H178.81L203.167 -69.897M130.096 28.5405H178.81L203.167 70.728M186.929 70.728L211.286 28.5405H260M251.881 42.603L227.524 0.415527L251.881 -41.772M260 -27.7095H211.286L186.929 -69.897M162.572 -55.8345V-18.3345L130.096 0.415527L162.572 19.1655V56.6655L195.048 37.9155L227.524 56.6655V19.1655L260 0.415527L227.524 -18.3345V-55.8345L195.048 -37.0845L162.572 -55.8345Z" stroke="#1D5267" stroke-width="4"/>
<path d="M73.2633 70.7305L97.6202 112.918L73.2633 155.105M65.1443 84.793H113.858L138.215 42.6055M65.1443 141.043H113.858L138.215 183.23M121.977 183.23L146.334 141.043H195.048M186.929 155.105L162.572 112.918L186.929 70.7305M195.048 84.793H146.334L121.977 42.6055M97.6202 56.668V94.168L65.1443 112.918L97.6202 131.668V169.168L130.096 150.418L162.572 169.168V131.668L195.048 112.918L162.572 94.168V56.668L130.096 75.418L97.6202 56.668Z" stroke="#1D5267" stroke-width="4"/>
</g>
<g clip-path="url(#clip4_8_123)">
<path d="M73.1671 70.8125L97.524 113L73.1671 155.188M65.0481 84.875H113.762L138.119 42.6875M65.0481 141.125H113.762L138.119 183.312M121.881 183.312L146.238 141.125H194.952M186.833 155.188L162.476 113L186.833 70.8125M194.952 84.875H146.238L121.881 42.6875M97.524 56.75V94.25L65.0481 113L97.524 131.75V169.25L130 150.5L162.476 169.25V131.75L194.952 113L162.476 94.25V56.75L130 75.5L97.524 56.75Z" stroke="#1D5267" stroke-width="4"/>
<path d="M8.21518 183.313L32.5721 225.5L8.21518 267.688M0.0961914 197.375H48.8101L73.1671 155.188M0.0961914 253.625H48.8101L73.1671 295.813M56.9291 295.813L81.2861 253.625H130M121.881 267.688L97.524 225.5L121.881 183.313M130 197.375H81.2861L56.9291 155.188M32.5721 169.25V206.75L0.0961914 225.5L32.5721 244.25V281.75L65.0481 263L97.524 281.75V244.25L130 225.5L97.524 206.75V169.25L65.0481 188L32.5721 169.25Z" stroke="#1D5267" stroke-width="4"/>
<path d="M8.21518 -41.772L32.5721 0.415527L8.21518 42.603M0.0961914 -27.7095H48.8101L73.1671 -69.897M0.0961914 28.5405H48.8101L73.1671 70.728M56.9291 70.728L81.2861 28.5405H130M121.881 42.603L97.524 0.415527L121.881 -41.772M130 -27.7095H81.2861L56.9291 -69.897M32.5721 -55.8345V-18.3345L0.0961914 0.415527L32.5721 19.1655V56.6655L65.0481 37.9155L97.524 56.6655V19.1655L130 0.415527L97.524 -18.3345V-55.8345L65.0481 -37.0845L32.5721 -55.8345Z" stroke="#1D5267" stroke-width="4"/>
<path d="M-56.7367 70.7305L-32.3798 112.918L-56.7367 155.105M-64.8557 84.793H-16.1418L8.21516 42.6055M-64.8557 141.043H-16.1418L8.21516 183.23M-8.02282 183.23L16.3342 141.043H65.0481M56.9291 155.105L32.5721 112.918L56.9291 70.7305M65.0481 84.793H16.3342L-8.02282 42.6055M-32.3798 56.668V94.168L-64.8557 112.918L-32.3798 131.668V169.168L0.0961761 150.418L32.5721 169.168V131.668L65.0481 112.918L32.5721 94.168V56.668L0.0961761 75.418L-32.3798 56.668Z" stroke="#1D5267" stroke-width="4"/>
</g>
<g clip-path="url(#clip5_8_123)">
<path d="M73.1671 296.812L97.524 339L73.1671 381.188M65.0481 310.875H113.762L138.119 268.688M65.0481 367.125H113.762L138.119 409.312M121.881 409.312L146.238 367.125H194.952M186.833 381.188L162.476 339L186.833 296.812M194.952 310.875H146.238L121.881 268.688M97.524 282.75V320.25L65.0481 339L97.524 357.75V395.25L130 376.5L162.476 395.25V357.75L194.952 339L162.476 320.25V282.75L130 301.5L97.524 282.75Z" stroke="#1D5267" stroke-width="4"/>
<path d="M8.21518 409.313L32.5721 451.5L8.21518 493.688M0.0961914 423.375H48.8101L73.1671 381.188M0.0961914 479.625H48.8101L73.1671 521.813M56.9291 521.813L81.2861 479.625H130M121.881 493.688L97.524 451.5L121.881 409.313M130 423.375H81.2861L56.9291 381.188M32.5721 395.25V432.75L0.0961914 451.5L32.5721 470.25V507.75L65.0481 489L97.524 507.75V470.25L130 451.5L97.524 432.75V395.25L65.0481 414L32.5721 395.25Z" stroke="#1D5267" stroke-width="4"/>
<path d="M8.21518 184.228L32.5721 226.416L8.21518 268.603M0.0961914 198.291H48.8101L73.1671 156.103M0.0961914 254.54H48.8101L73.1671 296.728M56.9291 296.728L81.2861 254.54H130M121.881 268.603L97.524 226.416L121.881 184.228M130 198.291H81.2861L56.9291 156.103M32.5721 170.166V207.666L0.0961914 226.416L32.5721 245.165V282.665L65.0481 263.915L97.524 282.665V245.165L130 226.416L97.524 207.666V170.166L65.0481 188.916L32.5721 170.166Z" stroke="#1D5267" stroke-width="4"/>
<path d="M-56.7367 296.73L-32.3798 338.918L-56.7367 381.105M-64.8557 310.793H-16.1418L8.21516 268.605M-64.8557 367.043H-16.1418L8.21516 409.23M-8.02282 409.23L16.3342 367.043H65.0481M56.9291 381.105L32.5721 338.918L56.9291 296.73M65.0481 310.793H16.3342L-8.02282 268.605M-32.3798 282.668V320.168L-64.8557 338.918L-32.3798 357.668V395.168L0.0961761 376.418L32.5721 395.168V357.668L65.0481 338.918L32.5721 320.168V282.668L0.0961761 301.418L-32.3798 282.668Z" stroke="#1D5267" stroke-width="4"/>
</g>
<g clip-path="url(#clip6_8_123)">
<path d="M203.167 296.812L227.524 339L203.167 381.188M195.048 310.875H243.762L268.119 268.688M195.048 367.125H243.762L268.119 409.312M251.881 409.312L276.238 367.125H324.952M316.833 381.188L292.476 339L316.833 296.812M324.952 310.875H276.238L251.881 268.688M227.524 282.75V320.25L195.048 339L227.524 357.75V395.25L260 376.5L292.476 395.25V357.75L324.952 339L292.476 320.25V282.75L260 301.5L227.524 282.75Z" stroke="#1D5267" stroke-width="4"/>
<path d="M138.215 409.313L162.572 451.5L138.215 493.688M130.096 423.375H178.81L203.167 381.188M130.096 479.625H178.81L203.167 521.813M186.929 521.813L211.286 479.625H260M251.881 493.688L227.524 451.5L251.881 409.313M260 423.375H211.286L186.929 381.188M162.572 395.25V432.75L130.096 451.5L162.572 470.25V507.75L195.048 489L227.524 507.75V470.25L260 451.5L227.524 432.75V395.25L195.048 414L162.572 395.25Z" stroke="#1D5267" stroke-width="4"/>
<path d="M138.215 184.228L162.572 226.416L138.215 268.603M130.096 198.291H178.81L203.167 156.103M130.096 254.54H178.81L203.167 296.728M186.929 296.728L211.286 254.54H260M251.881 268.603L227.524 226.416L251.881 184.228M260 198.291H211.286L186.929 156.103M162.572 170.166V207.666L130.096 226.416L162.572 245.165V282.665L195.048 263.915L227.524 282.665V245.165L260 226.416L227.524 207.666V170.166L195.048 188.916L162.572 170.166Z" stroke="#1D5267" stroke-width="4"/>
<path d="M73.2633 296.73L97.6202 338.918L73.2633 381.105M65.1443 310.793H113.858L138.215 268.605M65.1443 367.043H113.858L138.215 409.23M121.977 409.23L146.334 367.043H195.048M186.929 381.105L162.572 338.918L186.929 296.73M195.048 310.793H146.334L121.977 268.605M97.6202 282.668V320.168L65.1443 338.918L97.6202 357.668V395.168L130.096 376.418L162.572 395.168V357.668L195.048 338.918L162.572 320.168V282.668L130.096 301.418L97.6202 282.668Z" stroke="#1D5267" stroke-width="4"/>
</g>
<g clip-path="url(#clip7_8_123)">
<path d="M333.167 296.812L357.524 339L333.167 381.188M325.048 310.875H373.762L398.119 268.688M325.048 367.125H373.762L398.119 409.312M381.881 409.312L406.238 367.125H454.952M446.833 381.188L422.476 339L446.833 296.812M454.952 310.875H406.238L381.881 268.688M357.524 282.75V320.25L325.048 339L357.524 357.75V395.25L390 376.5L422.476 395.25V357.75L454.952 339L422.476 320.25V282.75L390 301.5L357.524 282.75Z" stroke="#1D5267" stroke-width="4"/>
<path d="M268.215 409.313L292.572 451.5L268.215 493.688M260.096 423.375H308.81L333.167 381.188M260.096 479.625H308.81L333.167 521.813M316.929 521.813L341.286 479.625H390M381.881 493.688L357.524 451.5L381.881 409.313M390 423.375H341.286L316.929 381.188M292.572 395.25V432.75L260.096 451.5L292.572 470.25V507.75L325.048 489L357.524 507.75V470.25L390 451.5L357.524 432.75V395.25L325.048 414L292.572 395.25Z" stroke="#1D5267" stroke-width="4"/>
<path d="M268.215 184.228L292.572 226.416L268.215 268.603M260.096 198.291H308.81L333.167 156.103M260.096 254.54H308.81L333.167 296.728M316.929 296.728L341.286 254.54H390M381.881 268.603L357.524 226.416L381.881 184.228M390 198.291H341.286L316.929 156.103M292.572 170.166V207.666L260.096 226.416L292.572 245.165V282.665L325.048 263.915L357.524 282.665V245.165L390 226.416L357.524 207.666V170.166L325.048 188.916L292.572 170.166Z" stroke="#1D5267" stroke-width="4"/>
<path d="M203.263 296.73L227.62 338.918L203.263 381.105M195.144 310.793H243.858L268.215 268.605M195.144 367.043H243.858L268.215 409.23M251.977 409.23L276.334 367.043H325.048M316.929 381.105L292.572 338.918L316.929 296.73M325.048 310.793H276.334L251.977 268.605M227.62 282.668V320.168L195.144 338.918L227.62 357.668V395.168L260.096 376.418L292.572 395.168V357.668L325.048 338.918L292.572 320.168V282.668L260.096 301.418L227.62 282.668Z" stroke="#1D5267" stroke-width="4"/>
</g>
<g clip-path="url(#clip8_8_123)">
<path d="M463.167 296.812L487.524 339L463.167 381.188M455.048 310.875H503.762L528.119 268.688M455.048 367.125H503.762L528.119 409.312M511.881 409.312L536.238 367.125H584.952M576.833 381.188L552.476 339L576.833 296.812M584.952 310.875H536.238L511.881 268.688M487.524 282.75V320.25L455.048 339L487.524 357.75V395.25L520 376.5L552.476 395.25V357.75L584.952 339L552.476 320.25V282.75L520 301.5L487.524 282.75Z" stroke="#1D5267" stroke-width="4"/>
<path d="M398.215 409.313L422.572 451.5L398.215 493.688M390.096 423.375H438.81L463.167 381.188M390.096 479.625H438.81L463.167 521.813M446.929 521.813L471.286 479.625H520M511.881 493.688L487.524 451.5L511.881 409.313M520 423.375H471.286L446.929 381.188M422.572 395.25V432.75L390.096 451.5L422.572 470.25V507.75L455.048 489L487.524 507.75V470.25L520 451.5L487.524 432.75V395.25L455.048 414L422.572 395.25Z" stroke="#1D5267" stroke-width="4"/>
<path d="M398.215 184.228L422.572 226.416L398.215 268.603M390.096 198.291H438.81L463.167 156.103M390.096 254.54H438.81L463.167 296.728M446.929 296.728L471.286 254.54H520M511.881 268.603L487.524 226.416L511.881 184.228M520 198.291H471.286L446.929 156.103M422.572 170.166V207.666L390.096 226.416L422.572 245.165V282.665L455.048 263.915L487.524 282.665V245.165L520 226.416L487.524 207.666V170.166L455.048 188.916L422.572 170.166Z" stroke="#1D5267" stroke-width="4"/>
<path d="M333.263 296.73L357.62 338.918L333.263 381.105M325.144 310.793H373.858L398.215 268.605M325.144 367.043H373.858L398.215 409.23M381.977 409.23L406.334 367.043H455.048M446.929 381.105L422.572 338.918L446.929 296.73M455.048 310.793H406.334L381.977 268.605M357.62 282.668V320.168L325.144 338.918L357.62 357.668V395.168L390.096 376.418L422.572 395.168V357.668L455.048 338.918L422.572 320.168V282.668L390.096 301.418L357.62 282.668Z" stroke="#1D5267" stroke-width="4"/>
</g>
<g clip-path="url(#clip9_8_123)">
<path d="M593.167 296.812L617.524 339L593.167 381.188M585.048 310.875H633.762L658.119 268.688M585.048 367.125H633.762L658.119 409.312M641.881 409.312L666.238 367.125H714.952M706.833 381.188L682.476 339L706.833 296.812M714.952 310.875H666.238L641.881 268.688M617.524 282.75V320.25L585.048 339L617.524 357.75V395.25L650 376.5L682.476 395.25V357.75L714.952 339L682.476 320.25V282.75L650 301.5L617.524 282.75Z" stroke="#1D5267" stroke-width="4"/>
<path d="M528.215 409.313L552.572 451.5L528.215 493.688M520.096 423.375H568.81L593.167 381.188M520.096 479.625H568.81L593.167 521.813M576.929 521.813L601.286 479.625H650M641.881 493.688L617.524 451.5L641.881 409.313M650 423.375H601.286L576.929 381.188M552.572 395.25V432.75L520.096 451.5L552.572 470.25V507.75L585.048 489L617.524 507.75V470.25L650 451.5L617.524 432.75V395.25L585.048 414L552.572 395.25Z" stroke="#1D5267" stroke-width="4"/>
<path d="M528.215 184.228L552.572 226.416L528.215 268.603M520.096 198.291H568.81L593.167 156.103M520.096 254.54H568.81L593.167 296.728M576.929 296.728L601.286 254.54H650M641.881 268.603L617.524 226.416L641.881 184.228M650 198.291H601.286L576.929 156.103M552.572 170.166V207.666L520.096 226.416L552.572 245.165V282.665L585.048 263.915L617.524 282.665V245.165L650 226.416L617.524 207.666V170.166L585.048 188.916L552.572 170.166Z" stroke="#1D5267" stroke-width="4"/>
<path d="M463.263 296.73L487.62 338.918L463.263 381.105M455.144 310.793H503.858L528.215 268.605M455.144 367.043H503.858L528.215 409.23M511.977 409.23L536.334 367.043H585.048M576.929 381.105L552.572 338.918L576.929 296.73M585.048 310.793H536.334L511.977 268.605M487.62 282.668V320.168L455.144 338.918L487.62 357.668V395.168L520.096 376.418L552.572 395.168V357.668L585.048 338.918L552.572 320.168V282.668L520.096 301.418L487.62 282.668Z" stroke="#1D5267" stroke-width="4"/>
</g>
<g clip-path="url(#clip10_8_123)">
<path d="M723.167 296.812L747.524 339L723.167 381.188M715.048 310.875H763.762L788.119 268.688M715.048 367.125H763.762L788.119 409.312M771.881 409.312L796.238 367.125H844.952M836.833 381.188L812.476 339L836.833 296.812M844.952 310.875H796.238L771.881 268.688M747.524 282.75V320.25L715.048 339L747.524 357.75V395.25L780 376.5L812.476 395.25V357.75L844.952 339L812.476 320.25V282.75L780 301.5L747.524 282.75Z" stroke="#1D5267" stroke-width="4"/>
<path d="M658.215 409.313L682.572 451.5L658.215 493.688M650.096 423.375H698.81L723.167 381.188M650.096 479.625H698.81L723.167 521.813M706.929 521.813L731.286 479.625H780M771.881 493.688L747.524 451.5L771.881 409.313M780 423.375H731.286L706.929 381.188M682.572 395.25V432.75L650.096 451.5L682.572 470.25V507.75L715.048 489L747.524 507.75V470.25L780 451.5L747.524 432.75V395.25L715.048 414L682.572 395.25Z" stroke="#1D5267" stroke-width="4"/>
<path d="M658.215 184.228L682.572 226.416L658.215 268.603M650.096 198.291H698.81L723.167 156.103M650.096 254.54H698.81L723.167 296.728M706.929 296.728L731.286 254.54H780M771.881 268.603L747.524 226.416L771.881 184.228M780 198.291H731.286L706.929 156.103M682.572 170.166V207.666L650.096 226.416L682.572 245.165V282.665L715.048 263.915L747.524 282.665V245.165L780 226.416L747.524 207.666V170.166L715.048 188.916L682.572 170.166Z" stroke="#1D5267" stroke-width="4"/>
<path d="M593.263 296.73L617.62 338.918L593.263 381.105M585.144 310.793H633.858L658.215 268.605M585.144 367.043H633.858L658.215 409.23M641.977 409.23L666.334 367.043H715.048M706.929 381.105L682.572 338.918L706.929 296.73M715.048 310.793H666.334L641.977 268.605M617.62 282.668V320.168L585.144 338.918L617.62 357.668V395.168L650.096 376.418L682.572 395.168V357.668L715.048 338.918L682.572 320.168V282.668L650.096 301.418L617.62 282.668Z" stroke="#1D5267" stroke-width="4"/>
</g>
<g clip-path="url(#clip11_8_123)">
<path d="M720.859 70.8125L745.216 113L720.859 155.188M712.74 84.875H761.454L785.811 42.6875M712.74 141.125H761.454L785.811 183.312M769.573 183.312L793.93 141.125H842.644M834.525 155.188L810.168 113L834.525 70.8125M842.644 84.875H793.93L769.573 42.6875M745.216 56.75V94.25L712.74 113L745.216 131.75V169.25L777.692 150.5L810.168 169.25V131.75L842.644 113L810.168 94.25V56.75L777.692 75.5L745.216 56.75Z" stroke="#1D5267" stroke-width="4"/>
<path d="M655.907 183.313L680.264 225.5L655.907 267.688M647.788 197.375H696.502L720.859 155.188M647.788 253.625H696.502L720.859 295.813M704.621 295.813L728.978 253.625H777.692M769.573 267.688L745.216 225.5L769.573 183.313M777.692 197.375H728.978L704.621 155.188M680.264 169.25V206.75L647.788 225.5L680.264 244.25V281.75L712.74 263L745.216 281.75V244.25L777.692 225.5L745.216 206.75V169.25L712.74 188L680.264 169.25Z" stroke="#1D5267" stroke-width="4"/>
<path d="M655.907 -41.772L680.264 0.415527L655.907 42.603M647.788 -27.7095H696.502L720.859 -69.897M647.788 28.5405H696.502L720.859 70.728M704.621 70.728L728.978 28.5405H777.692M769.573 42.603L745.216 0.415527L769.573 -41.772M777.692 -27.7095H728.978L704.621 -69.897M680.264 -55.8345V-18.3345L647.788 0.415527L680.264 19.1655V56.6655L712.74 37.9155L745.216 56.6655V19.1655L777.692 0.415527L745.216 -18.3345V-55.8345L712.74 -37.0845L680.264 -55.8345Z" stroke="#1D5267" stroke-width="4"/>
<path d="M590.956 70.7305L615.312 112.918L590.956 155.105M582.837 84.793H631.55L655.907 42.6055M582.837 141.043H631.55L655.907 183.23M639.669 183.23L664.026 141.043H712.74M704.621 155.105L680.264 112.918L704.621 70.7305M712.74 84.793H664.026L639.669 42.6055M615.312 56.668V94.168L582.837 112.918L615.312 131.668V169.168L647.788 150.418L680.264 169.168V131.668L712.74 112.918L680.264 94.168V56.668L647.788 75.418L615.312 56.668Z" stroke="#1D5267" stroke-width="4"/>
</g>
<defs>
<clipPath id="clip0_8_123">
<rect width="130" height="226" fill="white" transform="translate(519)"/>
</clipPath>
<clipPath id="clip1_8_123">
<rect width="130" height="226" fill="white" transform="translate(389)"/>
</clipPath>
<clipPath id="clip2_8_123">
<rect width="130" height="226" fill="white" transform="translate(259)"/>
</clipPath>
<clipPath id="clip3_8_123">
<rect width="130" height="226" fill="white" transform="translate(130)"/>
</clipPath>
<clipPath id="clip4_8_123">
<rect width="130" height="226" fill="white"/>
</clipPath>
<clipPath id="clip5_8_123">
<rect width="130" height="226" fill="white" transform="translate(0 226)"/>
</clipPath>
<clipPath id="clip6_8_123">
<rect width="130" height="226" fill="white" transform="translate(130 226)"/>
</clipPath>
<clipPath id="clip7_8_123">
<rect width="130" height="226" fill="white" transform="translate(260 226)"/>
</clipPath>
<clipPath id="clip8_8_123">
<rect width="130" height="226" fill="white" transform="translate(390 226)"/>
</clipPath>
<clipPath id="clip9_8_123">
<rect width="130" height="226" fill="white" transform="translate(520 226)"/>
</clipPath>
<clipPath id="clip10_8_123">
<rect width="130" height="226" fill="white" transform="translate(650 226)"/>
</clipPath>
<clipPath id="clip11_8_123">
<rect width="130" height="226" fill="white" transform="translate(647.692)"/>
</clipPath>
</defs>
</svg>
